<svg width="789" height="685" viewBox="0 0 789 685" fill="none" xmlns="http://www.w3.org/2000/svg">
<g clip-path="url(#clip0_216_2797)">
<path d="M800.081 234.375C801.033 238.094 801.925 241.832 802.757 245.588H519.613V234.375H800.081Z" fill="#E6E6E6"/>
<path d="M791.056 204.82C786.498 191.947 781.183 179.355 775.138 167.11C773.279 163.335 771.347 159.597 769.344 155.897C769.015 155.262 768.664 154.627 768.312 153.992V237.439H792.78V209.786L791.056 204.82Z" fill="#E6E6E6"/>
<path d="M775.138 167.108H768.312V155.895H769.344C771.351 159.591 773.282 163.328 775.138 167.108Z" fill="#CCCCCC"/>
<path d="M791.056 204.82H768.312V216.033H792.78V209.786L791.056 204.82Z" fill="#CCCCCC"/>
<path d="M755.064 140.609H730.602V237.439H755.064V140.609Z" fill="#E6E6E6"/>
<path d="M755.064 155.898H730.602V167.11H755.064V155.898Z" fill="#CCCCCC"/>
<path d="M755.064 204.824H730.602V216.036H755.064V204.824Z" fill="#CCCCCC"/>
<path d="M643.504 140.047H555.749C554.396 140.049 553.099 140.587 552.143 141.543C551.187 142.5 550.649 143.796 550.646 145.149V232.904C550.648 233.403 550.721 233.899 550.862 234.378C551.18 235.426 551.827 236.345 552.707 236.998C553.586 237.651 554.653 238.005 555.749 238.006H643.504C644.6 238.005 645.667 237.652 646.546 236.998C647.426 236.345 648.073 235.427 648.391 234.378C648.532 233.899 648.605 233.403 648.606 232.904V145.149C648.604 143.796 648.066 142.5 647.11 141.543C646.153 140.587 644.857 140.049 643.504 140.047V140.047Z" fill="#E6E6E6"/>
<path d="M637.269 146.281H561.985C560.632 146.283 559.336 146.821 558.379 147.778C557.423 148.734 556.885 150.031 556.883 151.383V226.667C556.885 228.019 557.423 229.316 558.379 230.272C559.336 231.229 560.632 231.767 561.985 231.769H637.269C638.621 231.767 639.918 231.229 640.874 230.272C641.831 229.316 642.369 228.019 642.371 226.667V151.383C642.369 150.031 641.831 148.734 640.874 147.778C639.918 146.821 638.621 146.283 637.269 146.281V146.281Z" fill="white"/>
<path d="M624.139 159.41H575.114C573.761 159.412 572.465 159.95 571.508 160.907C570.552 161.863 570.014 163.16 570.012 164.512V213.537C570.014 214.89 570.552 216.186 571.508 217.143C572.465 218.099 573.761 218.637 575.114 218.639H624.139C625.49 218.632 626.784 218.092 627.739 217.137C628.695 216.182 629.235 214.888 629.242 213.537V164.512C629.239 163.16 628.701 161.863 627.745 160.907C626.789 159.95 625.492 159.412 624.139 159.41V159.41Z" fill="#CCCCCC"/>
<path d="M621.117 204.889L610.762 186.953C610.563 186.609 610.277 186.322 609.932 186.123C609.587 185.924 609.196 185.819 608.798 185.819C608.4 185.819 608.009 185.924 607.664 186.123C607.32 186.322 607.033 186.609 606.834 186.953L599.273 200.05L589.357 182.876C589.158 182.531 588.872 182.245 588.527 182.046C588.182 181.847 587.791 181.742 587.393 181.742C586.995 181.742 586.604 181.847 586.259 182.046C585.915 182.245 585.629 182.531 585.43 182.876L575.074 200.811L562.756 222.148H586.515L584.161 226.225H633.437L621.117 204.889Z" fill="white"/>
<path d="M617.461 177.301C621.402 177.301 624.596 174.107 624.596 170.166C624.596 166.226 621.402 163.031 617.461 163.031C613.521 163.031 610.326 166.226 610.326 170.166C610.326 174.107 613.521 177.301 617.461 177.301Z" fill="white"/>
<path d="M810.911 313.607C810.831 309.208 810.657 304.832 810.388 300.478C810.276 298.392 810.139 296.317 809.969 294.242H762.1C760.748 294.244 759.451 294.782 758.495 295.739C757.538 296.695 757 297.992 756.998 299.344V387.099C756.995 387.501 757.045 387.901 757.145 388.29C757.413 389.403 758.047 390.393 758.946 391.103C759.845 391.812 760.955 392.199 762.1 392.201H806.228C806.454 390.909 806.67 389.594 806.862 388.29C806.987 387.519 807.112 386.737 807.226 385.966C807.497 384.117 807.758 382.269 807.996 380.421C808.337 377.904 808.643 375.376 808.915 372.836C809.912 363.732 810.555 354.529 810.842 345.229V345.217C810.944 341.714 810.997 338.195 811.001 334.662V321.056C811.001 318.562 810.979 316.079 810.911 313.607Z" fill="#E6E6E6"/>
<path d="M810.909 313.606C810.829 309.207 810.655 304.83 810.387 300.477H768.335C766.982 300.479 765.685 301.017 764.729 301.973C763.773 302.93 763.234 304.226 763.232 305.579V380.862C763.234 382.215 763.773 383.511 764.729 384.467C765.685 385.424 766.982 385.962 768.335 385.964H807.224C807.496 384.116 807.757 382.268 807.995 380.42C808.335 377.903 808.641 375.375 808.913 372.835C809.911 363.731 810.553 354.528 810.841 345.227V345.216C810.943 341.712 810.995 338.194 810.999 334.66V321.055C810.999 318.56 810.977 316.077 810.909 313.606Z" fill="white"/>
<path d="M810.91 313.605H781.465C780.113 313.608 778.816 314.146 777.86 315.102C776.904 316.058 776.365 317.355 776.363 318.708V367.732C776.365 369.085 776.904 370.381 777.86 371.338C778.816 372.294 780.113 372.832 781.465 372.834H808.915C809.912 363.73 810.555 354.528 810.842 345.227V345.215C810.944 341.712 810.997 338.194 811.001 334.66V321.054C811 318.56 810.978 316.077 810.91 313.605Z" fill="#CCCCCC"/>
<path d="M810.843 345.225C810.559 354.522 809.917 363.725 808.915 372.833C808.643 375.372 808.337 377.901 807.996 380.418H790.513L792.872 376.348H769.107L776.364 363.774L781.42 355.01L791.783 337.073C791.981 336.727 792.266 336.439 792.611 336.239C792.955 336.039 793.346 335.934 793.745 335.934C794.143 335.934 794.535 336.039 794.879 336.239C795.224 336.439 795.509 336.727 795.706 337.073L805.627 354.25L810.843 345.225Z" fill="white"/>
<path d="M724.933 91.6897H519.613V80.4766H714.751C718.221 84.1387 721.615 87.8764 724.933 91.6897Z" fill="#E6E6E6"/>
<path d="M628.674 13.9219C637.041 18.525 645.197 23.457 653.141 28.7178V83.5251H628.674V13.9219Z" fill="#E6E6E6"/>
<path d="M653.136 50.9141H628.674V62.126H653.136V50.9141Z" fill="#CCCCCC"/>
<path d="M690.852 57.518V83.5271H666.385V37.9375C672.088 42.0985 677.663 46.4258 683.108 50.9194C685.716 53.0736 688.297 55.2731 690.852 57.518Z" fill="#E6E6E6"/>
<path d="M690.852 57.5166V62.1198H666.385V50.918H683.108C685.716 53.0722 688.297 55.2717 690.852 57.5166Z" fill="#CCCCCC"/>
<path d="M603.696 1.42858C610.17 4.34235 616.534 7.44892 622.789 10.7483L617.755 20.907L601.032 54.7052L596.055 64.7506L588.265 80.4762L586.553 83.9343L579.58 80.4762L564.637 73.0726L574.127 53.8889H574.138L579.104 43.8436L595.839 10.0454L600.76 0.113386L600.816 0L603.696 1.42858Z" fill="#E6E6E6"/>
<path d="M622.733 10.8503L617.756 20.907L595.84 10.0454L600.761 0.113379L600.817 0L603.697 1.42857L622.733 10.8503Z" fill="#CCCCCC"/>
<path d="M579.106 43.8466L574.131 53.8945L596.054 64.7482L601.028 54.7003L579.106 43.8466Z" fill="#CCCCCC"/>
<path d="M806.861 388.289C806.668 389.593 806.453 390.908 806.226 392.201C805.829 394.65 805.398 397.076 804.934 399.502H519.613V388.289H806.861Z" fill="#E6E6E6"/>
<path d="M653.136 294.52H628.674V391.35H653.136V294.52Z" fill="#E6E6E6"/>
<path d="M653.136 309.805H628.674V321.017H653.136V309.805Z" fill="#CCCCCC"/>
<path d="M653.136 358.73H628.674V369.942H653.136V358.73Z" fill="#CCCCCC"/>
<path d="M690.849 294.52H666.387V391.35H690.849V294.52Z" fill="#E6E6E6"/>
<path d="M690.849 309.805H666.387V321.017H690.849V309.805Z" fill="#CCCCCC"/>
<path d="M690.849 358.73H666.387V369.942H690.849V358.73Z" fill="#CCCCCC"/>
<path d="M607.596 294.117L564.633 380.895L586.556 391.748L629.519 304.971L607.596 294.117Z" fill="#E6E6E6"/>
<path d="M600.813 307.819L595.838 317.867L617.761 328.721L622.735 318.673L600.813 307.819Z" fill="#CCCCCC"/>
<path d="M579.105 351.663L574.131 361.711L596.054 372.565L601.028 362.517L579.105 351.663Z" fill="#CCCCCC"/>
<path d="M331.974 431.497C332.997 432.085 333.971 432.753 334.888 433.495L435.829 402.082L441.521 377.039L480.439 380.689L474.671 426.003C474.205 429.663 472.564 433.074 469.994 435.723C467.425 438.372 464.065 440.116 460.421 440.693L341.629 459.5C339.896 463.7 336.925 467.274 333.112 469.744C329.298 472.215 324.823 473.466 320.281 473.332C315.739 473.197 311.346 471.683 307.686 468.99C304.025 466.298 301.271 462.555 299.79 458.259C298.309 453.963 298.171 449.319 299.394 444.942C300.617 440.566 303.144 436.666 306.638 433.761C310.132 430.856 314.427 429.083 318.953 428.679C323.479 428.274 328.021 429.257 331.974 431.497V431.497Z" fill="#FFB8B8"/>
<path d="M498.423 395.715L497.754 384.286V384.275L497.573 381.146L495.6 347.495C496.19 340.48 493.977 333.516 489.444 328.129C484.912 322.743 478.429 319.371 471.416 318.753C469.399 318.572 467.367 318.626 465.362 318.912C459.405 319.754 453.907 322.584 449.76 326.943C445.613 331.302 443.06 336.934 442.515 342.926L438.423 359.955L431.268 389.74C430.762 391.824 430.972 394.017 431.864 395.967C432.757 397.917 434.281 399.51 436.189 400.488C437.291 401.068 438.498 401.422 439.738 401.531L451.666 402.597L463.151 403.617L476.405 404.796L477.358 404.876L479.806 405.103L488.003 405.828H488.026C489.395 405.939 490.772 405.757 492.066 405.296C493.36 404.835 494.541 404.104 495.532 403.152C496.254 402.449 496.862 401.638 497.335 400.749C498.162 399.206 498.539 397.461 498.423 395.715V395.715Z" fill="#F1BC00"/>
<path d="M609.191 257.134C609.191 295.939 573.31 290.069 529.049 290.069C484.787 290.069 448.906 295.939 448.906 257.134C448.906 218.33 466.433 149.547 529.049 149.547C593.821 149.547 609.191 218.33 609.191 257.134Z" fill="#2F2E41"/>
<path d="M566.913 274.211C587.973 253.151 587.973 219.006 566.913 197.945C545.852 176.885 511.707 176.885 490.647 197.945C469.586 219.006 469.586 253.151 490.647 274.211C511.707 295.271 545.852 295.271 566.913 274.211Z" fill="#FFB8B8"/>
<path d="M604.694 312.675C603.656 311.675 602.554 310.743 601.395 309.886C594.063 304.347 584.849 301.908 575.737 303.094L476.36 315.668C467.257 316.798 458.952 321.429 453.206 328.579C447.459 335.728 444.723 344.835 445.577 353.967C445.861 357.142 446.178 360.487 446.529 363.967C446.983 368.332 447.493 372.913 448.083 377.652C449.058 385.623 450.249 394.035 451.666 402.595C452.901 409.965 454.308 417.437 455.918 424.818C456.383 426.949 456.866 429.073 457.369 431.19C457.368 431.196 457.368 431.202 457.37 431.208C457.372 431.214 457.376 431.219 457.38 431.224C457.437 431.484 457.493 431.745 457.561 431.995C457.558 432.014 457.562 432.034 457.573 432.051C458.276 434.999 459.013 437.913 459.784 440.793C460.079 441.859 460.362 442.913 460.656 443.956C461.45 446.79 462.29 449.568 463.151 452.301C469.625 472.629 478.185 489.942 489.489 499.149C489.636 499.285 489.784 499.398 489.943 499.523L490.397 499.874L491.054 499.67L493.843 498.843L496.224 498.117L527.245 488.786L534.966 486.462L559.774 478.99H559.785L582.472 472.165L585.239 471.326L604.729 465.464L605.352 458.185L606.191 448.525L606.69 442.72L610.636 396.938L612.937 370.226L615.431 341.224C615.895 335.965 615.171 330.669 613.312 325.727C611.454 320.786 608.508 316.325 604.694 312.675V312.675Z" fill="#2F2E41"/>
<path d="M660.262 534.207C660.002 533.448 659.752 532.688 659.491 531.94C647.836 497.926 630.648 472.201 605.352 458.187C605.341 458.187 605.341 458.176 605.33 458.176L604.899 457.938L582.858 465.568L580.137 466.509L577.303 467.495L577.268 467.507L556.634 474.65L556.599 474.661L540.409 480.262H540.397L525.42 485.443H525.409L521.928 486.656L495.748 495.715L492.71 496.77L489.989 497.711L489.569 497.858L489.49 499.151L487.619 531.94L487.495 534.207L485.159 575.126L407.596 685.001H460.657C478.437 685.005 496.191 683.652 513.765 680.953L563.549 627.303C563.966 626.871 564.494 626.561 565.074 626.407C565.655 626.252 566.266 626.26 566.843 626.428C567.419 626.596 567.939 626.918 568.346 627.36C568.753 627.802 569.031 628.347 569.151 628.935L576.463 665.216C612.491 652.477 646.193 633.933 676.237 610.318C672.745 582.144 667.643 556.464 660.262 534.207Z" fill="#2F2E41"/>
<path d="M466.471 230.786H487.8L497.21 204.438L499.092 230.786H509.287L514.776 215.417L515.874 230.786H591.625C591.625 223.29 590.148 215.866 587.279 208.94C584.41 202.014 580.205 195.721 574.904 190.42C569.603 185.119 563.31 180.914 556.383 178.045C549.457 175.176 542.034 173.699 534.537 173.699H523.558C508.418 173.699 493.897 179.714 483.191 190.42C472.485 201.126 466.471 215.646 466.471 230.786V230.786Z" fill="#2F2E41"/>
<path d="M335.275 516.507C331.793 517.97 328.032 518.651 324.258 518.504C320.483 518.356 316.787 517.383 313.43 515.653C310.072 513.922 307.135 511.477 304.825 508.488C302.515 505.5 300.888 502.041 300.06 498.356L208.828 488.024L239.41 451.402L321.357 466.829C327.64 465.847 334.065 467.204 339.414 470.642C344.763 474.081 348.666 479.362 350.381 485.486C352.097 491.609 351.507 498.149 348.722 503.867C345.938 509.584 341.153 514.081 335.275 516.507L335.275 516.507Z" fill="#A0616A"/>
<path d="M286.086 448.72L247.525 441.826L244.725 441.327C242.487 440.928 240.359 440.059 238.481 438.778C236.603 437.498 235.017 435.834 233.827 433.897C232.637 431.96 231.871 429.793 231.578 427.539C231.286 425.285 231.473 422.994 232.129 420.817L251.063 357.903L251.63 356.033C253.994 348.036 253.573 339.474 250.436 331.748C247.299 324.021 241.632 317.589 234.362 313.504C229.441 310.772 223.957 309.211 218.334 308.944C212.712 308.676 207.104 309.709 201.946 311.962C196.789 314.216 192.22 317.628 188.596 321.934C184.972 326.241 182.39 331.325 181.051 336.792L156.901 435.352L156.006 439.003C154.319 445.88 154.135 453.04 155.466 459.995C156.798 466.95 159.613 473.536 163.721 479.304C167.828 485.072 173.131 489.886 179.268 493.419C185.405 496.951 192.232 499.119 199.283 499.774C199.362 499.785 199.43 499.785 199.509 499.797L213.965 501.078L232.718 502.745L256.301 504.842L278.308 506.803C281.191 507.065 284.066 506.233 286.364 504.473C288.662 502.713 290.214 500.153 290.712 497.302C290.746 497.144 290.769 496.985 290.791 496.826L295.463 461.951L295.508 461.633C295.911 458.681 295.155 455.686 293.398 453.279C291.641 450.871 289.021 449.237 286.086 448.72V448.72Z" fill="#CCCCCC"/>
<path d="M226.677 184.469C211.284 214.733 199.152 245.947 165.198 245.947C148.893 245.947 133.255 239.47 121.726 227.941C110.196 216.411 103.719 200.774 103.719 184.469C103.719 150.515 131.246 123.415 165.198 122.99C199.705 122.558 255.328 128.138 226.677 184.469Z" fill="#2F2E41"/>
<path d="M265.293 580.384L263.898 566.461L262.855 566.518L79.5312 575.35L80.0074 589.443L80.8129 613.581C109.179 635.189 140.68 652.337 174.226 664.432L175.417 655.202C175.521 654.45 175.882 653.757 176.438 653.241C176.994 652.724 177.712 652.416 178.47 652.368C179.228 652.32 179.979 652.535 180.596 652.977C181.213 653.419 181.658 654.061 181.856 654.794L185.473 668.275C214.695 677.699 245.041 683.193 275.712 684.613L265.293 580.384Z" fill="#2F2E41"/>
<path d="M206.356 231.351C227.416 210.291 227.416 176.146 206.356 155.086C185.296 134.026 151.15 134.026 130.09 155.086C109.03 176.146 109.03 210.291 130.09 231.351C151.15 252.412 185.296 252.412 206.356 231.351Z" fill="#A0616A"/>
<path d="M275.826 567.403L265.135 534.206L264.953 533.639L264.409 531.938L261.359 522.482C260.372 519.41 259.431 516.326 258.558 513.23C257.753 510.441 257.001 507.645 256.302 504.84C255.305 500.94 254.398 497.025 253.581 493.094C250.814 479.886 248.969 466.502 248.059 453.038C247.81 449.308 247.632 445.57 247.526 441.825C246.862 418.868 248.929 395.914 253.683 373.446C257.822 354.016 255.611 333.771 247.377 315.693C239.143 297.614 225.321 282.658 207.946 273.026C196.545 266.725 183.926 262.94 170.939 261.927C170.043 261.859 169.147 261.802 168.24 261.745C154.521 260.878 140.783 263.104 128.039 268.257C115.296 273.41 103.872 281.36 94.6115 291.518C89.6517 296.921 85.3438 302.888 81.7766 309.296C71.8791 327.128 68.1636 347.736 71.2098 367.902L83.9534 453.469L81.0514 489.489L77.6273 531.938L77.4457 534.206L73.7947 579.466C73.6217 581.576 74.1326 583.685 75.2515 585.482C76.3705 587.279 78.0382 588.668 80.0079 589.444C81.1615 589.906 82.3935 590.141 83.6363 590.135C83.8178 590.135 83.9878 590.135 84.1694 590.124L265.293 580.385L266.949 580.294C268.46 580.215 269.932 579.791 271.253 579.052C272.573 578.314 273.706 577.282 274.564 576.036C275.422 574.79 275.982 573.363 276.201 571.866C276.42 570.37 276.292 568.842 275.826 567.403L275.826 567.403Z" fill="#E5E5EA"/>
<path d="M225.45 162.741C213.127 171.235 198.5 175.755 183.533 175.695C188.872 179.397 194.95 181.898 201.348 183.025C181.448 187.293 160.882 187.409 140.936 183.364C136.502 182.653 132.224 181.184 128.289 179.02C124.459 176.696 121.256 172.994 120.483 168.581C119.158 161.009 125.058 154.13 131.189 149.494C140.577 142.504 151.401 137.688 162.878 135.394C174.356 133.101 186.199 133.387 197.553 136.233C204.966 138.149 212.392 141.386 217.207 147.34C222.022 153.293 223.449 162.471 218.861 168.601L225.45 162.741Z" fill="#2F2E41"/>
<path d="M228.208 505.287C224.758 506.825 221.013 507.588 217.236 507.522C213.46 507.456 209.743 506.563 206.349 504.906C202.955 503.249 199.966 500.867 197.591 497.93C195.217 494.992 193.516 491.569 192.608 487.903L101.174 479.548L130.956 442.273L213.217 455.922C219.477 454.804 225.93 456.021 231.353 459.343C236.776 462.665 240.791 467.861 242.639 473.946C244.487 480.031 244.038 486.582 241.378 492.359C238.719 498.135 234.032 502.735 228.208 505.287L228.208 505.287Z" fill="#A0616A"/>
<path d="M177.571 438.581L156.901 435.35L136.051 432.085C133.805 431.734 131.659 430.912 129.754 429.673C127.848 428.434 126.227 426.806 124.995 424.895C123.764 422.985 122.951 420.836 122.609 418.589C122.267 416.342 122.404 414.048 123.012 411.858L141.107 346.665C143.297 338.619 142.69 330.068 139.387 322.412C136.083 314.756 130.278 308.449 122.921 304.522C117.952 301.871 112.433 300.414 106.803 300.266C101.172 300.119 95.5851 301.285 90.4836 303.672C85.3664 306.021 80.8647 309.527 77.333 313.912C73.8013 318.298 71.3362 323.444 70.1317 328.944L47.3085 431.676C45.771 438.606 45.7488 445.786 47.2433 452.726C48.7379 459.665 51.7139 466.199 55.9678 471.882C60.2217 477.564 65.653 482.261 71.8901 485.65C78.1271 489.039 85.0228 491.04 92.1051 491.518L171.051 496.813C173.938 497.01 176.793 496.116 179.052 494.308C181.312 492.5 182.81 489.91 183.251 487.051C183.285 486.892 183.296 486.733 183.319 486.574L187.23 451.608L187.264 451.291C187.601 448.331 186.781 445.355 184.974 442.986C183.167 440.617 180.514 439.039 177.571 438.581Z" fill="#E5E5EA"/>
<path d="M527.322 384.385L522.59 386.967L464.3 418.771L459.569 421.353C457.273 422.609 455.569 424.724 454.831 427.235C454.093 429.745 454.381 432.446 455.632 434.745L499.039 514.3C500.295 516.596 502.41 518.299 504.921 519.037C507.432 519.776 510.133 519.488 512.431 518.237L512.443 518.23L580.172 481.276L580.184 481.27C582.48 480.014 584.184 477.898 584.922 475.388C585.66 472.877 585.372 470.176 584.121 467.878L540.714 388.322C539.458 386.027 537.342 384.323 534.832 383.585C532.321 382.847 529.62 383.135 527.322 384.385V384.385Z" fill="#E6E6E6"/>
<path d="M528.682 386.883L523.078 389.941L466.533 420.793L460.929 423.85C459.294 424.745 458.081 426.251 457.555 428.039C457.03 429.827 457.235 431.75 458.125 433.387L501.533 512.942C502.427 514.577 503.934 515.791 505.722 516.316C507.509 516.842 509.433 516.637 511.07 515.746L511.082 515.739L578.81 478.786L578.823 478.779C580.458 477.884 581.671 476.378 582.196 474.59C582.722 472.802 582.517 470.879 581.626 469.242L538.219 389.687C537.324 388.052 535.818 386.839 534.03 386.313C532.242 385.787 530.319 385.992 528.682 386.883V386.883Z" fill="white"/>
<path d="M530.272 409.344C530.062 408.962 529.709 408.679 529.291 408.556C528.872 408.432 528.422 408.479 528.039 408.686L525.783 409.922L502.778 422.473C502.397 422.683 502.115 423.036 501.993 423.454C501.872 423.871 501.92 424.32 502.128 424.702C502.337 425.084 502.687 425.368 503.104 425.492C503.521 425.616 503.97 425.57 504.353 425.364L529.615 411.577C529.996 411.367 530.28 411.014 530.403 410.596C530.526 410.178 530.479 409.728 530.272 409.344Z" fill="#E6E6E6"/>
<path d="M538.877 410.965C538.775 410.776 538.636 410.609 538.468 410.474C538.3 410.339 538.108 410.238 537.901 410.178C537.694 410.118 537.478 410.099 537.264 410.124C537.05 410.148 536.843 410.214 536.655 410.319L505.441 427.348C505.252 427.452 505.085 427.591 504.95 427.759C504.815 427.927 504.714 428.12 504.654 428.327C504.593 428.534 504.574 428.751 504.597 428.965C504.621 429.179 504.686 429.387 504.789 429.576C504.893 429.765 505.033 429.932 505.201 430.067C505.369 430.202 505.562 430.303 505.768 430.363C505.975 430.424 506.192 430.443 506.406 430.42C506.621 430.397 506.828 430.331 507.017 430.228L508.469 429.434L517.55 424.48H517.562L538.22 413.198C538.411 413.096 538.58 412.957 538.717 412.789C538.854 412.621 538.956 412.428 539.017 412.22C539.078 412.012 539.097 411.794 539.073 411.578C539.049 411.363 538.983 411.154 538.877 410.965V410.965Z" fill="#E6E6E6"/>
<path d="M504.955 438.107L495.045 419.932C494.942 419.75 494.771 419.615 494.57 419.558C494.368 419.5 494.152 419.525 493.968 419.626L489.161 422.245L486.667 423.606L473.277 430.907L470.68 432.324C470.498 432.427 470.363 432.598 470.306 432.8C470.248 433.002 470.273 433.218 470.374 433.401L471.009 434.569L480.283 451.576C480.384 451.758 480.553 451.892 480.753 451.949C480.952 452.007 481.167 451.982 481.349 451.882L497.335 443.163L499.83 441.803L504.637 439.184C504.729 439.134 504.81 439.067 504.876 438.986C504.942 438.905 504.991 438.812 505.021 438.711C505.05 438.611 505.06 438.506 505.048 438.403C505.037 438.299 505.005 438.198 504.955 438.107V438.107Z" fill="#E6E6E6"/>
<path d="M542.801 432.402C542.593 432.021 542.242 431.738 541.825 431.614C541.409 431.491 540.96 431.538 540.578 431.745L506.315 450.441C506.012 450.607 505.77 450.863 505.621 451.175C505.473 451.486 505.426 451.836 505.487 452.176C505.511 452.351 505.569 452.521 505.658 452.674C505.744 452.831 505.855 452.973 505.987 453.094L505.998 453.105C506.252 453.333 506.57 453.478 506.908 453.518C507.247 453.559 507.591 453.494 507.891 453.332L542.155 434.636C542.344 434.532 542.511 434.392 542.646 434.223C542.781 434.055 542.882 433.861 542.942 433.653C543.002 433.446 543.02 433.229 542.996 433.014C542.972 432.799 542.905 432.591 542.801 432.402Z" fill="#E6E6E6"/>
<path d="M551.417 434.026C551.313 433.837 551.173 433.671 551.004 433.536C550.835 433.401 550.642 433.301 550.434 433.24C550.227 433.18 550.01 433.162 549.795 433.186C549.58 433.21 549.373 433.276 549.184 433.38L508.968 455.319C508.666 455.479 508.422 455.731 508.273 456.039C508.124 456.347 508.078 456.695 508.14 457.031V457.042C508.164 457.218 508.222 457.388 508.31 457.541C508.398 457.704 508.513 457.849 508.65 457.972C508.901 458.205 509.22 458.353 509.56 458.393C509.9 458.434 510.245 458.366 510.544 458.199L550.76 436.26C551.142 436.05 551.426 435.697 551.549 435.279C551.672 434.86 551.625 434.41 551.417 434.026Z" fill="#E6E6E6"/>
<path d="M494.839 468.642C498.69 468.642 501.812 465.52 501.812 461.669C501.812 457.817 498.69 454.695 494.839 454.695C490.987 454.695 487.865 457.817 487.865 461.669C487.865 465.52 490.987 468.642 494.839 468.642Z" fill="#E6E6E6"/>
<path d="M547.73 353.776L542.998 356.358L484.708 388.162L479.977 390.743C477.681 391.999 475.977 394.115 475.239 396.625C474.501 399.136 474.789 401.837 476.04 404.135L519.447 483.69C520.703 485.986 522.819 487.69 525.329 488.428C527.84 489.166 530.541 488.878 532.839 487.627L532.851 487.621L600.58 450.667L600.592 450.66C602.888 449.404 604.592 447.289 605.33 444.778C606.068 442.268 605.78 439.567 604.529 437.268L561.122 357.713C559.866 355.417 557.75 353.713 555.24 352.975C552.729 352.237 550.028 352.525 547.73 353.776V353.776Z" fill="#CCCCCC"/>
<path d="M549.09 356.27L543.486 359.327L486.941 390.18L481.337 393.237C479.702 394.132 478.489 395.638 477.963 397.426C477.438 399.214 477.643 401.137 478.534 402.774L521.941 482.329C522.835 483.964 524.342 485.177 526.13 485.703C527.918 486.228 529.841 486.023 531.478 485.133L531.49 485.126L599.219 448.172L599.231 448.166C600.866 447.271 602.079 445.765 602.605 443.977C603.13 442.189 602.925 440.266 602.034 438.629L558.627 359.074C557.733 357.439 556.226 356.225 554.438 355.7C552.65 355.174 550.727 355.379 549.09 356.27Z" fill="white"/>
<path d="M550.681 378.731C550.47 378.349 550.117 378.065 549.699 377.942C549.281 377.819 548.831 377.866 548.447 378.073L536.814 384.422L533.571 386.191L523.186 391.86C522.805 392.07 522.523 392.423 522.402 392.84C522.28 393.258 522.328 393.707 522.537 394.089C522.745 394.471 523.096 394.755 523.513 394.879C523.929 395.003 524.379 394.957 524.762 394.751L537.007 388.073L539.569 386.667L550.023 380.964C550.405 380.754 550.688 380.401 550.811 379.983C550.934 379.564 550.887 379.114 550.681 378.731V378.731Z" fill="#CCCCCC"/>
<path d="M559.285 380.352C559.183 380.162 559.044 379.996 558.876 379.86C558.709 379.725 558.516 379.625 558.309 379.565C558.103 379.505 557.886 379.486 557.672 379.51C557.458 379.534 557.251 379.601 557.063 379.705L540.838 388.56L538.344 389.921L525.849 396.735C525.66 396.838 525.493 396.978 525.358 397.146C525.223 397.314 525.123 397.507 525.062 397.714C525.002 397.921 524.982 398.138 525.006 398.352C525.029 398.566 525.094 398.774 525.198 398.963C525.301 399.152 525.441 399.319 525.609 399.454C525.777 399.589 525.97 399.69 526.177 399.75C526.384 399.811 526.6 399.83 526.815 399.807C527.029 399.783 527.236 399.718 527.426 399.615L539.92 392.801L542.415 391.44L558.628 382.585C558.819 382.483 558.988 382.344 559.125 382.176C559.262 382.008 559.364 381.814 559.425 381.606C559.486 381.398 559.505 381.18 559.481 380.965C559.457 380.75 559.391 380.541 559.285 380.352V380.352Z" fill="#CCCCCC"/>
<path d="M525.363 407.493L517.46 393.004L516.1 390.509L515.453 389.319C515.35 389.136 515.179 389.002 514.978 388.944C514.776 388.887 514.56 388.912 514.377 389.013L498.333 397.765L491.088 401.711C490.906 401.814 490.771 401.985 490.714 402.187C490.657 402.388 490.681 402.605 490.782 402.788L491.428 403.967L492.131 405.271L492.789 406.462V406.473L500.691 420.963C500.792 421.144 500.961 421.279 501.161 421.336C501.361 421.393 501.575 421.369 501.757 421.269L525.045 408.571C525.137 408.521 525.218 408.454 525.284 408.373C525.35 408.292 525.399 408.198 525.429 408.098C525.458 407.998 525.468 407.893 525.457 407.789C525.445 407.685 525.413 407.585 525.363 407.493V407.493Z" fill="#F1BC00"/>
<path d="M563.209 401.793C563.001 401.412 562.651 401.128 562.234 401.005C561.818 400.882 561.369 400.929 560.987 401.135L550.749 406.725L548.255 408.086L538.368 413.471L526.724 419.832C526.534 419.935 526.366 420.075 526.23 420.243C526.095 420.411 525.993 420.605 525.932 420.812C525.871 421.02 525.852 421.237 525.875 421.452C525.898 421.667 525.963 421.875 526.066 422.065C526.17 422.255 526.309 422.423 526.478 422.558C526.646 422.694 526.839 422.796 527.047 422.857C527.254 422.918 527.472 422.937 527.687 422.914C527.902 422.891 528.11 422.826 528.3 422.723L549.831 410.977L552.325 409.616L562.563 404.027C562.753 403.923 562.92 403.782 563.055 403.614C563.19 403.445 563.29 403.252 563.35 403.044C563.41 402.837 563.429 402.619 563.405 402.404C563.38 402.19 563.314 401.982 563.209 401.793V401.793Z" fill="#CCCCCC"/>
<path d="M571.825 403.413C571.721 403.224 571.58 403.057 571.412 402.922C571.243 402.788 571.05 402.687 570.842 402.627C570.635 402.567 570.417 402.549 570.203 402.573C569.988 402.597 569.78 402.663 569.591 402.767L553.412 411.599L550.918 412.96L529.376 424.706C529.186 424.809 529.018 424.948 528.882 425.116C528.746 425.284 528.644 425.477 528.583 425.685C528.522 425.892 528.502 426.109 528.525 426.324C528.548 426.539 528.613 426.747 528.717 426.937C528.821 427.127 528.961 427.294 529.13 427.429C529.298 427.565 529.492 427.665 529.699 427.726C529.907 427.786 530.125 427.805 530.339 427.78C530.554 427.756 530.762 427.69 530.951 427.586L552.482 415.84L554.977 414.479L571.167 405.647C571.55 405.437 571.834 405.084 571.957 404.666C572.08 404.247 572.033 403.797 571.825 403.413V403.413Z" fill="#CCCCCC"/>
<path d="M515.247 438.029C519.098 438.029 522.22 434.906 522.22 431.055C522.22 427.204 519.098 424.082 515.247 424.082C511.395 424.082 508.273 427.204 508.273 431.055C508.273 434.906 511.395 438.029 515.247 438.029Z" fill="#CCCCCC"/>
<path d="M519.931 470.261C521.104 470.376 522.267 470.584 523.409 470.883L602.491 400.728L597.377 375.561L634.351 362.879L647.734 406.554C648.815 410.082 648.723 413.866 647.47 417.337C646.218 420.808 643.873 423.779 640.789 425.805L540.25 491.813C540.398 496.354 539.161 500.833 536.701 504.654C534.242 508.475 530.677 511.456 526.482 513.202C522.287 514.948 517.659 515.375 513.216 514.426C508.772 513.478 504.722 511.199 501.605 507.893C498.488 504.587 496.451 500.41 495.766 495.918C495.08 491.426 495.779 486.832 497.768 482.746C499.758 478.661 502.944 475.278 506.903 473.048C510.862 470.818 515.406 469.845 519.931 470.261V470.261Z" fill="#FFB8B8"/>
<path d="M656.928 369.162L634.524 326.373C632.218 319.865 627.474 314.508 621.292 311.432C615.111 308.356 607.976 307.802 601.395 309.888C601.145 309.956 600.907 310.035 600.658 310.126C593.988 312.457 588.515 317.34 585.442 323.702C582.368 330.064 581.944 337.386 584.262 344.06L593.254 391.35C593.511 392.704 594.058 393.986 594.856 395.109C595.654 396.233 596.686 397.17 597.88 397.858C599.185 398.622 600.655 399.057 602.165 399.128C603.408 399.207 604.654 399.033 605.827 398.618L610.635 396.94L641.497 386.192L651.588 382.677C652.889 382.222 654.077 381.492 655.071 380.536C656.065 379.581 656.842 378.423 657.349 377.141C657.855 375.859 658.08 374.482 658.008 373.106C657.935 371.729 657.567 370.384 656.928 369.162V369.162Z" fill="#F1BC00"/>
<path d="M741.866 547H1.13435C0.833502 547 0.544975 546.21 0.332243 544.803C0.119511 543.397 0 541.489 0 539.5C0 537.511 0.119511 535.603 0.332243 534.196C0.544975 532.79 0.833502 532 1.13435 532H741.866C742.166 532 742.455 532.79 742.668 534.196C742.881 535.603 743 537.511 743 539.5C743 541.489 742.881 543.397 742.668 544.803C742.455 546.21 742.166 547 741.866 547Z" fill="#3F3D56"/>
<path d="M128.682 513.23V513.797C128.686 517.641 129.805 521.401 131.904 524.621C134.003 527.841 136.992 530.383 140.507 531.938C143.029 533.065 145.761 533.645 148.523 533.639H331.631V513.23H128.682Z" fill="#3F3D56"/>
<path d="M459.478 378.73C456.573 372.732 452.099 367.631 446.53 363.968C444.006 362.297 441.283 360.949 438.424 359.955C434.528 358.594 430.43 357.9 426.304 357.902H250.565C240.796 357.914 231.43 361.799 224.522 368.707C217.614 375.615 213.728 384.981 213.717 394.75V496.791C213.714 498.224 213.797 499.655 213.967 501.077C214.215 503.204 214.648 505.306 215.259 507.358C215.865 509.38 216.646 511.345 217.594 513.231C220.647 519.364 225.35 524.523 231.175 528.129C236.999 531.734 243.715 533.643 250.565 533.639H426.304C431.143 533.641 435.936 532.689 440.407 530.838C444.879 528.987 448.941 526.273 452.364 522.851C455.786 519.429 458.5 515.366 460.351 510.895C462.202 506.423 463.154 501.631 463.152 496.791V394.75C463.16 389.201 461.904 383.722 459.478 378.73V378.73Z" fill="#3F3D56"/>
<path d="M348.07 454.84C353.08 454.84 357.141 450.779 357.141 445.77C357.141 440.76 353.08 436.699 348.07 436.699C343.061 436.699 339 440.76 339 445.77C339 450.779 343.061 454.84 348.07 454.84Z" fill="white"/>
</g>
<defs>
<clipPath id="clip0_216_2797">
<rect width="811" height="685" fill="white"/>
</clipPath>
</defs>
</svg>
